<svg xmlns="http://www.w3.org/2000/svg" width="198" height="24" viewBox="0 0 198 24"><defs><style>.a{fill:#ffb550;}.b{fill:#131ba3;}</style></defs><g transform="translate(0.4)"><path class="a" d="M107.258,8.5H86.489a1,1,0,0,0-1,.992,1.07,1.07,0,0,0,1,.992H99.17a1,1,0,0,1,.9,1.488,6.355,6.355,0,0,0-1,2.38,1.073,1.073,0,0,1-1,.793h-3.1a.94.94,0,0,0-1,.992h0a.94.94,0,0,0,1,.992h3a.971.971,0,0,1,1,.793,6.356,6.356,0,0,0,1,2.38.987.987,0,0,1-.9,1.488H86.389a.992.992,0,1,0,0,1.983h20.769c5.092,0,8.487-3.074,8.487-7.636C115.745,11.674,112.35,8.5,107.258,8.5Zm0,14.777a2.964,2.964,0,0,1-2.7-1.488c-.7-1.091-1-2.876-1-5.653a12.1,12.1,0,0,1,1-5.653A2.773,2.773,0,0,1,107.258,9c2.4,0,3.694,1.785,3.694,7.141S109.654,23.277,107.258,23.277ZM80.4,17.128H90.583a.94.94,0,0,0,1-.992h0a.94.94,0,0,0-1-.992H80.4a1.07,1.07,0,0,0-1,.992A.94.94,0,0,0,80.4,17.128Z" transform="translate(-0.121 -0.07)"/><path class="b" d="M28.656,23.277c0,.1-.1.2-.3.2-.7,0-2.3-.2-3.694-.2s-3.3.2-3.395.2c-.2,0-.3-.1-.3-.2,0-.2.2-.3.5-.5.7-.4.8-.793.8-3.273V12.963c0-2.083-.8-2.876-2.1-2.876a3.1,3.1,0,0,0-2.3,1.19,7.5,7.5,0,0,0-1.4,4.364V19.31c0,2.579.2,2.777,1.1,3.372.4.2.6.3.6.5,0,.1-.1.2-.3.2-.7,0-2.3-.2-3.694-.2s-3.3.2-3.395.2c-.2,0-.3-.1-.3-.2,0-.2.2-.3.5-.5.7-.4.8-.793.8-3.273V12.963c0-2.083-.8-2.876-2.1-2.876a3.1,3.1,0,0,0-2.3,1.19,7.863,7.863,0,0,0-1.4,5.058v2.678c0,2.876.2,3.471,1.2,3.769.4.2.6.2.6.4,0,.1-.1.2-.3.2-.3,0-2.2-.2-3.694-.2-1.6,0-3.595.2-3.894.2-.2,0-.3-.1-.3-.2,0-.2.2-.3.6-.5,1.8-.5,1.8-.793,1.8-3.868V14.252c0-2.975-.3-3.57-1.4-3.967-.4-.1-.6-.1-.6-.4,0-.2.1-.2.4-.3A32.151,32.151,0,0,0,6.39,8.5c.2,0,.2.1.2.2a35.972,35.972,0,0,0-.3,4.86c.7-2.975,2.7-4.959,5.691-4.959,2.8,0,4.393,1.388,4.693,4.264h.1A5.451,5.451,0,0,1,22.266,8.6c3.1,0,4.793,1.686,4.793,5.455v5.455c0,2.579.2,2.777,1.1,3.372C28.456,22.979,28.656,23.079,28.656,23.277Z" transform="translate(0 -0.07)"/><path class="b" d="M46.476,19.112a.745.745,0,0,1-.1.4c-.8,2.38-3.395,4.264-7.089,4.264C34,23.774,30.7,20.4,30.7,16.137c0-4.463,3.495-7.537,8.387-7.537,4.293,0,7.289,2.38,7.289,5.653,0,.893-.3,1.388-1.2,1.388H35.493v.3c0,4.364,1.5,6.744,4.893,6.744a5.592,5.592,0,0,0,5.492-3.372c.1-.2.1-.3.3-.3C46.376,18.914,46.476,19.013,46.476,19.112ZM35.593,14.848l6.091-.1c.5,0,.6-.1.6-1.091,0-3.074-1.1-4.562-3.1-4.562C36.891,9.1,35.692,10.881,35.593,14.848Z" transform="translate(-0.047 -0.071)"/><path class="b" d="M50.6,18.57V11.231c0-.992-.2-1.19-1-1.289l-.9-.1c-.4,0-.5-.2-.5-.4s.1-.4.5-.4c3.395-.2,4.493-1.19,5.791-5.554,0-.4.2-.5.4-.5s.3.1.3.5V8.851c0,.2.1.3.2.3h3.894c.3,0,.5.1.5.5s-.2.5-.5.5c-.7,0-2,0-3.994-.1-.2,0-.3.1-.3.2v9.719c0,1.686.6,2.38,2,2.38,1.5,0,2.2-.992,2.3-2.479,0-.3.1-.4.3-.4s.3.1.3.4c0,1.983-1.2,3.868-4.493,3.868C52.294,23.727,50.6,22.339,50.6,18.57Z" transform="translate(-0.074 -0.025)"/><path class="b" d="M77.076,19.112a.746.746,0,0,1-.1.4c-.8,2.38-3.395,4.264-7.089,4.264-5.292,0-8.587-3.372-8.587-7.636,0-4.463,3.495-7.537,8.387-7.537,4.293,0,7.289,2.38,7.289,5.653,0,.893-.3,1.388-1.2,1.388H66.093v.3c0,4.364,1.5,6.744,4.893,6.744a5.592,5.592,0,0,0,5.492-3.372c.1-.2.1-.3.3-.3C76.976,18.914,77.076,19.013,77.076,19.112ZM66.193,14.848l6.091-.1c.5,0,.6-.1.6-1.091,0-3.074-1.1-4.562-3.1-4.562C67.491,9.1,66.293,10.881,66.193,14.848Z" transform="translate(-0.093 -0.071)"/><path class="b" d="M123.289,23.776,118.6,12.768c-.9-2.083-1.3-2.678-2-3.074-.6-.3-.8-.3-.8-.5a.264.264,0,0,1,.3-.3c.2,0,2,.2,3.594.2,1.3,0,3.395-.2,3.694-.2.1,0,.2.1.2.3,0,.1-.1.2-.4.4a1.078,1.078,0,0,0-.9,1.19c0,.6.2,1.686,2.6,7.24a5.867,5.867,0,0,1,.3.694,1.216,1.216,0,0,0,.2-.5l1.9-5.455a6.121,6.121,0,0,0,.5-1.785c0-.5-.2-.793-.8-1.289-.3-.2-.5-.2-.5-.5,0-.2.1-.2.3-.2s2.1.2,3.2.2,3.3-.2,3.495-.2c.1,0,.3.1.3.2s-.2.2-.5.4a.955.955,0,0,0-.7.992c0,.992,1.7,4.76,2.7,7.438a1.083,1.083,0,0,0,.2.4,2.139,2.139,0,0,0,.3-.6l1.6-4.165a7.074,7.074,0,0,0,.7-2.579,1.527,1.527,0,0,0-1-1.488c-.4-.2-.5-.3-.5-.5a.214.214,0,0,1,.2-.2c.3,0,1.3.2,2.1.2a13.447,13.447,0,0,0,2-.2c.2,0,.3.1.3.2s-.2.3-.5.4c-1.2.4-1.5.893-2.2,2.678l-4.593,11.5c-.1.3-.2.4-.3.4-.2,0-.2-.1-.3-.4-.9-2.083-3.595-8.331-4.893-11.207-.1-.2-.1-.3-.3-.3q-.15,0-.3.3l-4.194,11.207c-.1.2-.1.3-.3.3C123.488,24.074,123.388,23.974,123.289,23.776Z" transform="translate(-0.176 -0.074)"/><path class="b" d="M156.878,11.079a2.023,2.023,0,0,1-2,2.281c-2.3,0-1.7-2.777-3-2.777-1.4,0-2.5,3.074-2.6,6.248v2.876c0,1.983.4,2.479,2.2,3.074.4.1.5.2.5.4a.264.264,0,0,1-.3.3c-.4,0-2.9-.2-4.693-.2-1.7,0-3.894.2-4.194.2-.2,0-.3-.1-.3-.2,0-.2.2-.3.6-.5,1.5-.5,1.6-1.19,1.6-3.372V13.26c0-1.785-.3-2.479-1.6-2.876-.5-.1-.7-.2-.7-.4s.1-.2.4-.3A27.275,27.275,0,0,0,148.89,8.6a.264.264,0,0,1,.3.3,30.353,30.353,0,0,0-.3,5.256h0c.6-3.471,2.5-5.653,4.992-5.653C155.88,8.6,156.878,9.591,156.878,11.079Z" transform="translate(-0.216 -0.07)"/><path class="b" d="M158.6,23.207c0-.2.2-.3.6-.5,1.5-.5,1.5-1.388,1.5-4.562V14.38c0-2.777-.2-3.669-1.6-4.264-.4-.2-.6-.2-.6-.5,0-.2.1-.2.4-.2a19.661,19.661,0,0,0,6.49-1.091.264.264,0,0,1,.3.3c0,.2-.2.5-.3,1.091a23.471,23.471,0,0,0-.2,4.364v3.769c0,3.372.2,4.364,1.9,4.959.3.1.4.2.4.3s-.1.2-.3.2c-.4,0-2.6-.2-4.293-.2-1.6,0-3.694.2-4.094.2C158.7,23.4,158.6,23.306,158.6,23.207Zm1-20.529A2.617,2.617,0,0,1,162.494,0a2.7,2.7,0,0,1,3,2.678,2.722,2.722,0,0,1-3,2.777A2.691,2.691,0,0,1,159.6,2.678Z" transform="translate(-0.24)"/><path class="b" d="M171.4,18.57V11.231c0-.992-.2-1.19-1-1.289l-.9-.1c-.4,0-.5-.2-.5-.4s.1-.4.5-.4c3.395-.2,4.493-1.19,5.791-5.554.1-.4.2-.5.5-.5.2,0,.3.1.3.5V8.851c0,.2.1.3.2.3h3.894c.3,0,.5.1.5.5s-.2.5-.5.5c-.7,0-2,0-3.994-.1-.2,0-.3.1-.3.2v9.719c0,1.686.6,2.38,2,2.38,1.5,0,2.2-.992,2.3-2.479,0-.3.1-.4.3-.4s.3.1.3.4c0,1.983-1.2,3.868-4.493,3.868C173.094,23.727,171.4,22.339,171.4,18.57Z" transform="translate(-0.256 -0.025)"/><path class="b" d="M197.876,19.112a.746.746,0,0,1-.1.4c-.8,2.38-3.395,4.264-7.089,4.264-5.292,0-8.587-3.372-8.587-7.636,0-4.463,3.495-7.537,8.387-7.537,4.294,0,7.289,2.38,7.289,5.653,0,.893-.3,1.388-1.2,1.388h-9.685v.3c0,4.364,1.5,6.744,4.893,6.744a5.592,5.592,0,0,0,5.492-3.372c.1-.2.1-.3.3-.3C197.776,18.914,197.876,19.013,197.876,19.112Zm-10.883-4.264,6.091-.1c.5,0,.6-.1.6-1.091,0-3.074-1.1-4.562-3.1-4.562C188.291,9.1,187.093,10.881,186.993,14.848Z" transform="translate(-0.276 -0.071)"/></g></svg>